<svg width="56" height="54" viewBox="0 0 56 54" fill="none" xmlns="http://www.w3.org/2000/svg">
<path d="M44.578 18.033C50.321 21.5645 53.9905 26.9455 53.9905 32.9729C53.9905 43.6129 42.5597 52.2363 28.4591 52.2363C14.3585 52.2363 2.92773 43.6129 2.92773 32.9729C2.92773 29.3132 4.27948 25.8918 6.62964 22.9784C6.62964 22.9784 10.1349 26.5265 14.1395 26.6824C14.1395 26.6824 10.6131 8.12657 35.3447 1.76462C35.3447 1.76462 29.6963 7.63145 32.248 12.8825C34.3089 17.1239 40.544 16.7154 40.6845 25.1626C40.6844 25.1625 43.7876 22.5671 44.578 18.033V18.033Z" fill="#FD8087"/>
<path d="M31.824 52.0704C30.723 52.179 29.5991 52.2359 28.4591 52.2359C14.3589 52.2359 2.92773 43.6133 2.92773 32.9726C2.92773 29.3133 4.27907 25.8917 6.6291 22.9789C6.6291 22.9789 8.63592 25.0102 11.348 26.0654C10.2551 28.2094 9.6575 30.5382 9.6575 32.9726C9.65763 42.752 19.3148 50.8272 31.824 52.0704V52.0704Z" fill="#FE646F"/>
<path d="M35.3449 1.76456C35.3449 1.76456 33.9693 3.19354 32.8818 5.27251C18.3051 13.1913 20.8692 26.6828 20.8692 26.6828C17.8758 26.566 15.161 24.5541 13.9806 23.5456C14.1879 17.9749 16.9484 6.49633 35.3449 1.76456V1.76456Z" fill="#FE646F"/>
<path d="M41.0531 42.7369C41.0531 45.3611 39.6427 47.7355 37.3641 49.455C35.0855 51.1743 31.9361 52.2363 28.4586 52.2363C21.5058 52.2363 15.869 47.9851 15.8664 42.7388C15.8664 42.7368 15.8664 42.7368 15.8664 42.735C15.8341 40.7566 16.4013 38.4178 17.9785 35.7036L23.1278 36.8392C23.3169 29.3272 32.5732 26.6824 32.5732 26.6824C32.9064 29.1545 33.7522 31.5459 35.506 33.7083C36.7821 35.2794 37.9886 36.6252 39.3841 38.1325C40.5929 39.4407 41.063 41.1677 41.0531 42.7369V42.7369Z" fill="#FEF48B"/>
<path d="M30.4781 52.1139C29.8213 52.1942 29.1469 52.2358 28.4592 52.2358C21.506 52.2358 15.8691 47.9854 15.8664 42.7387C15.8664 42.7367 15.8664 42.7367 15.8664 42.7347C15.8341 40.7562 16.4008 38.4173 17.9782 35.7035L21.5786 36.4977C20.3323 38.8763 19.8747 40.9522 19.9043 42.7347V42.7387C19.9071 47.4664 24.4846 51.3858 30.4781 52.1139V52.1139Z" fill="#FEF056"/>
<path d="M32.8847 28.3556C30.2897 29.8903 27.2721 32.5837 27.1658 36.8391L23.1925 35.9626C24.0405 29.1204 32.5724 26.6829 32.5724 26.6829C32.6477 27.2456 32.7515 27.8042 32.8847 28.3556V28.3556Z" fill="#FEF056"/>
<path d="M45.4414 16.9939L45.4778 17.0164C51.8082 20.9087 55.5001 26.7144 55.5001 32.9726C55.5001 38.6399 52.4677 43.7456 47.6351 47.4356C42.8033 51.1251 36.1488 53.4222 28.8145 53.4942C22.1295 53.6184 15.8232 51.7275 10.9512 48.5537C6.08217 45.3819 2.61272 40.9042 1.6812 35.8441L2.17293 35.7536L1.6812 35.8441C1.60786 35.4457 1.76382 35.0855 2.01439 34.8355C2.26151 34.5888 2.60728 34.4363 2.98181 34.397L2.98217 34.397C3.357 34.358 3.72798 34.4351 4.02928 34.6069C4.32824 34.7774 4.59275 35.0645 4.66435 35.4534L4.17353 35.5437L4.66435 35.4534C5.70432 41.1028 10.2875 45.9231 16.6717 48.6362C15.2202 46.9277 14.5353 44.999 14.4312 43.0094C14.2911 40.3315 15.204 37.5851 16.6214 35.1466C16.964 34.5571 17.7334 34.3445 18.3687 34.4843L18.3689 34.4843L21.7854 35.2376C22.3214 32.405 24.1101 29.9185 26.9599 27.9675L26.96 27.9675C29.4754 26.2456 31.9537 25.5252 32.0775 25.4899L32.1033 25.4825L32.1298 25.4779C32.5499 25.4056 32.9604 25.4168 33.3143 25.5819C33.6868 25.7556 33.928 26.0673 34.0522 26.452L34.066 26.4945L34.0719 26.5388C34.4171 29.0934 35.2969 31.1983 36.7544 32.9953C37.3002 33.6667 37.9136 34.3201 38.5434 34.9909C38.7248 35.1842 38.9076 35.3788 39.0905 35.5758C39.8984 36.4458 40.7013 37.3531 41.3269 38.3227M45.4414 16.9939L33.5764 26.6057C33.9326 29.2419 34.845 31.435 36.3662 33.3104C36.9244 33.9971 37.5544 34.6681 38.1865 35.3413C39.1777 36.397 40.174 37.4582 40.9068 38.5938C41.1509 38.9719 40.9427 39.4279 40.4413 39.6121C39.9405 39.7966 39.3359 39.6392 39.0919 39.2609M45.4414 16.9939L45.4016 16.978C44.9475 16.7965 44.4865 16.7187 44.062 16.846C43.6169 16.9795 43.3108 17.3075 43.1215 17.7285L43.0957 17.7858L43.0849 17.8477C42.8259 19.335 42.2877 20.598 41.7084 21.6025M45.4414 16.9939L37.2269 15.7701M41.3269 38.3227L40.9088 38.5925L41.3268 38.3226C41.3268 38.3226 41.3269 38.3227 41.3269 38.3227ZM41.3269 38.3227C41.5422 38.6562 41.5629 39.0454 41.4084 39.3835C41.2589 39.7106 40.9656 39.9522 40.6137 40.0814M40.6137 40.0814C40.6139 40.0814 40.614 40.0813 40.6142 40.0812L40.4419 39.6136L40.6137 40.0814ZM40.6137 40.0814C40.2619 40.2109 39.8811 40.2191 39.5443 40.1314C39.211 40.0447 38.8779 39.8514 38.6719 39.5321M38.6719 39.5321L39.0919 39.2609M38.6719 39.5321C38.6718 39.532 38.6717 39.532 38.6717 39.5319L39.0919 39.2609M38.6719 39.5321C38.1134 38.6674 37.3775 37.836 36.5882 36.9902C36.4217 36.8119 36.2526 36.6326 36.0824 36.4522C35.4561 35.7884 34.8171 35.111 34.2567 34.4217L34.2564 34.4212C32.8571 32.696 31.9104 30.7521 31.3848 28.5255M39.0919 39.2609C38.3812 38.1604 37.4072 37.1279 36.4388 36.1013C35.8144 35.4393 35.1923 34.7798 34.6447 34.1063C33.2767 32.4197 32.3559 30.5167 31.851 28.3232C31.7047 28.3842 31.5487 28.4515 31.3848 28.5255M18.2612 34.9726L21.7051 35.7319L18.2612 34.9726ZM18.2612 34.9726C17.7744 34.8655 17.2574 35.0473 17.0537 35.3979C14.4829 39.8204 13.6874 45.1517 17.7725 49.0763L18.2612 34.9726ZM31.3848 28.5255C30.6395 28.8617 29.7314 29.3335 28.8299 29.9564M31.3848 28.5255C31.3459 28.3608 31.3093 28.1946 31.2751 28.0268C30.4917 28.3747 29.5165 28.8743 28.5457 29.545M28.8299 29.9564L22.8447 37.5704C23.5885 37.6527 24.0194 37.4138 24.1371 36.8535C24.2094 33.9754 25.6926 31.5164 28.5457 29.545M28.8299 29.9564L28.5457 29.545M28.8299 29.9564C28.8299 29.9564 28.8299 29.9564 28.8299 29.9564L28.5457 29.545M28.8299 29.9564C26.078 31.8579 24.7044 34.1813 24.637 36.8661L24.6358 36.9117L24.6264 36.9564C24.5431 37.353 24.3316 37.6886 23.9682 37.8902C23.6263 38.0798 23.2144 38.1144 22.7897 38.0673L22.7632 38.0644L22.7371 38.0586L18.8276 37.1966M28.8299 29.9564L18.8276 37.1966M18.8276 37.1966C18.8832 37.084 18.9406 36.9722 19 36.8611L18.5591 36.6253L18.4514 37.1136L18.8276 37.1966ZM18.8276 37.1966C17.3953 40.0994 17.2469 43.4756 18.6321 46.1391C20.056 48.877 23.1617 50.9743 28.4593 50.9743C31.4617 50.9743 34.2613 50.0929 36.349 48.5175L36.6269 48.8858L36.349 48.5175C38.5296 46.872 39.6615 44.5517 39.5335 42.3083L39.5335 42.3081C39.5107 41.9056 39.7102 41.5678 39.9801 41.346C40.2484 41.1254 40.6042 40.999 40.9806 40.9866M18.8276 37.1966L40.9981 41.4863M40.9806 40.9866C40.9801 40.9866 40.9797 40.9866 40.9792 40.9867L40.9981 41.4863M40.9806 40.9866C40.9811 40.9866 40.9815 40.9866 40.982 40.9866L40.9981 41.4863M40.9806 40.9866C41.357 40.9726 41.7212 41.0766 42.0062 41.2739C42.2902 41.4704 42.5261 41.7856 42.5489 42.1864L42.5489 42.1866C42.6785 44.4782 41.839 46.7669 40.2268 48.6589M40.9981 41.4863C41.5493 41.4654 42.0258 41.7943 42.0497 42.2148C42.1887 44.6727 41.1381 47.1576 39.1313 49.0949C39.5022 48.9563 39.8674 48.8109 40.2268 48.6589M40.2268 48.6589C47.5916 45.5426 52.4812 39.6345 52.4812 32.9727C52.4812 28.2171 50.0015 23.6914 45.5297 20.3115M40.2268 48.6589C39.9713 48.9587 39.6964 49.2485 39.403 49.5268C47.446 46.4877 52.9812 40.209 52.9812 32.9727C52.9812 27.9814 50.3511 23.275 45.693 19.809C45.6412 19.9797 45.5867 20.1473 45.5297 20.3115M45.5297 20.3115C44.2853 23.9029 41.8982 25.9364 41.7546 26.0565L41.7084 26.0951L41.6544 26.1217C41.1645 26.3625 40.6584 26.4891 40.1912 26.356C39.6947 26.2146 39.3828 25.8237 39.2062 25.3452L39.1767 25.2654L39.1753 25.1804C39.1383 22.9562 38.6559 21.4606 37.956 20.3451C37.2517 19.2227 36.3022 18.4431 35.2466 17.6821L35.2462 17.6819C33.154 16.1709 31.0448 14.5201 30.3628 12.0783L30.3628 12.0783C30.2539 11.6881 30.3742 11.3147 30.6082 11.0439C30.8374 10.7786 31.1741 10.6067 31.5456 10.5476M45.5297 20.3115C45.3909 20.2066 45.2502 20.1028 45.1075 20.0001C43.9216 23.5587 41.5501 25.5757 41.4338 25.673C40.5458 26.1095 39.9596 25.9425 39.6752 25.1721C39.5989 20.579 37.6751 18.8164 35.539 17.2765C33.4274 15.7517 31.4727 14.1935 30.8444 11.9438C30.7295 11.5322 31.0785 11.1282 31.6241 11.0414M31.5456 10.5476L28.8072 52.9943C43.282 52.853 55.0001 43.9266 55.0001 32.9726C55.0001 26.9263 51.434 21.2656 45.216 17.4423C44.415 17.1221 43.8688 17.2859 43.5775 17.9335C43.2678 19.7113 42.5777 21.1794 41.8805 22.2849C41.8288 22.0494 41.7713 21.8221 41.7084 21.6025M31.5456 10.5476L31.6241 11.0414M31.5456 10.5476L33.3016 11.4953M31.6241 11.0414C32.168 10.9549 32.7051 11.2179 32.82 11.6298M31.6241 11.0414L31.5456 10.5476C31.9172 10.4885 32.2921 10.547 32.6034 10.7C32.9114 10.8513 33.1961 11.1175 33.3016 11.4953M32.82 11.6298C33.3604 13.5655 35.1151 14.8624 36.9343 16.1755C38.7833 17.5084 40.6028 19.0828 41.3462 22.1916C41.4673 22.0065 41.5887 21.81 41.7084 21.6025M32.82 11.6298L33.3016 11.4953M32.82 11.6298L33.3016 11.4953M41.7084 21.6025C40.8582 18.6331 39.0229 17.0648 37.2269 15.7701M37.2269 15.7701C36.3125 15.11 35.4515 14.4797 34.7504 13.7818C34.0537 13.0882 33.5408 12.3522 33.3016 11.4954L37.2269 15.7701ZM17.501 49.5082C10.4845 46.8452 5.30759 41.7094 4.17262 35.5439C4.0959 35.1272 3.58618 34.8368 3.03394 34.8943L17.501 49.5082Z" fill="black" stroke="black"/>
<path d="M4.45105 32.3753L4.45105 32.3753C4.43403 32.7671 4.21338 33.0802 3.93847 33.2806C3.66349 33.481 3.31063 33.5904 2.94313 33.5904C2.92945 33.5904 2.91377 33.5903 2.89709 33.5899C2.89668 33.5899 2.89626 33.5899 2.89585 33.5899L2.90948 33.09L4.45105 32.3753ZM4.45105 32.3753C4.56157 29.8251 5.40034 27.3124 6.90418 25.0257M4.45105 32.3753L6.90418 25.0257M6.90418 25.0257C8.42945 26.1935 11.0702 27.826 14.0678 27.9431L14.0915 27.944L14.1152 27.9427C14.5217 27.92 14.911 27.8235 15.2034 27.5818C15.5192 27.3209 15.6474 26.9543 15.6387 26.5635L15.6378 26.5222L15.6301 26.4815C13.8853 17.2757 20.7485 8.24085 31.8103 4.19025C31.1473 5.3462 30.5242 6.74821 30.2389 8.26739L30.2389 8.26743C30.1642 8.66554 30.3188 9.02631 30.5687 9.27718C30.815 9.52445 31.1602 9.67778 31.5345 9.71794C31.5346 9.71795 31.5347 9.71797 31.5349 9.71798L31.5881 9.22082M6.90418 25.0257L36.5077 2.57383M31.5881 9.22082C32.1406 9.28044 32.651 8.99017 32.7293 8.57357C33.3719 5.15214 36.1315 2.23904 36.1618 2.21233C37.0733 1.40907 35.8171 0.833522 35.0195 1.04355C21.1179 4.70406 12.3359 14.135 12.9755 25.241C12.8045 25.1986 12.6348 25.1499 12.467 25.0957C11.9085 13.7406 20.9326 4.23583 34.8921 0.560035C35.4247 0.419813 36.095 0.530439 36.5256 0.843589C36.7513 1.00774 36.9752 1.27905 36.9799 1.65503C36.9845 2.01718 36.7828 2.32672 36.5077 2.57383M31.5881 9.22082C31.0361 9.16171 30.6521 8.77628 30.7303 8.35968L31.5881 9.22082ZM36.5077 2.57383C36.5109 2.57044 36.5123 2.56897 36.5123 2.56896C36.5123 2.56892 36.5041 2.57709 36.4925 2.58731L36.164 2.21487L36.4924 2.58745C36.4975 2.58293 36.5026 2.57839 36.5077 2.57383ZM3.95157 32.3536L3.95152 32.3536L3.95157 32.3536Z" fill="black" stroke="black"/>
</svg>
